<svg width="134" height="24" viewBox="0 0 134 24" fill="none" xmlns="http://www.w3.org/2000/svg">
<path d="M6.40173 0L0 18.9201H4.26609L5.53607 15.0583H12.4717L13.7417 18.9201H18.0337L11.632 0H6.40173ZM6.62981 11.632L9.01426 4.33348L11.378 11.632H6.62981Z" fill="#12131A"/>
<path d="M30.583 5.71219C29.5152 5.06943 28.323 4.74805 27.0012 4.74805C25.9852 4.74805 25.0833 4.93984 24.2954 5.31824C23.6837 5.61371 23.1705 6.00766 22.761 6.49492V5.04869H19.2051V23.9999H23.015V17.8366C23.3986 18.1891 23.8392 18.4845 24.3472 18.7023C25.1507 19.0496 26.0267 19.2206 26.9753 19.2206C28.3282 19.2206 29.5411 18.8992 30.609 18.2565C31.6768 17.6137 32.5165 16.7429 33.1386 15.6388C33.7554 14.5398 34.0664 13.3217 34.0664 11.9791C34.0664 10.6366 33.7502 9.40291 33.1282 8.30917C32.501 7.21543 31.656 6.34977 30.5882 5.70701L30.583 5.71219ZM29.6707 13.9696C29.3649 14.545 28.945 14.996 28.4008 15.3174C27.8617 15.6388 27.2345 15.7995 26.5243 15.7995C25.8141 15.7995 25.244 15.6388 24.71 15.3174C24.1761 14.996 23.7615 14.545 23.466 13.9696C23.1705 13.3943 23.0202 12.736 23.0202 11.9895C23.0202 11.2431 23.1705 10.5848 23.466 10.0094C23.7615 9.43401 24.1761 8.98304 24.71 8.66165C25.244 8.34027 25.8504 8.17958 26.5243 8.17958C27.2345 8.17958 27.8617 8.34545 28.4008 8.6772C28.945 9.00895 29.3649 9.45474 29.6707 10.0249C29.9766 10.5899 30.1269 11.2483 30.1269 11.9947C30.1269 12.7411 29.9766 13.3995 29.6707 13.9748V13.9696Z" fill="#12131A"/>
<path d="M46.6573 5.71219C45.5895 5.06943 44.3972 4.74805 43.0754 4.74805C42.0594 4.74805 41.1575 4.93984 40.3696 5.31824C39.7579 5.61371 39.2447 6.00766 38.8352 6.49492V5.04869H35.2793V23.9999H39.0892V17.8366C39.4728 18.1891 39.9134 18.4845 40.4214 18.7023C41.2249 19.0496 42.1009 19.2206 43.0495 19.2206C44.4024 19.2206 45.6154 18.8992 46.6832 18.2565C47.751 17.6137 48.5907 16.7429 49.2128 15.6388C49.8296 14.5398 50.1406 13.3217 50.1406 11.9791C50.1406 10.6366 49.8244 9.40291 49.2024 8.30917C48.5752 7.21543 47.7303 6.34977 46.6624 5.70701L46.6573 5.71219ZM45.745 13.9696C45.4391 14.545 45.0193 14.996 44.475 15.3174C43.9307 15.6388 43.3087 15.7995 42.5933 15.7995C41.878 15.7995 41.313 15.6388 40.7791 15.3174C40.2452 14.996 39.8305 14.545 39.535 13.9696C39.2396 13.3943 39.0892 12.736 39.0892 11.9895C39.0892 11.2431 39.2396 10.5848 39.535 10.0094C39.8305 9.43401 40.2452 8.98304 40.7791 8.66165C41.313 8.34027 41.9195 8.17958 42.5933 8.17958C43.3035 8.17958 43.9307 8.34545 44.475 8.6772C45.0193 9.00895 45.4391 9.45474 45.745 10.0249C46.0508 10.5899 46.2011 11.2483 46.2011 11.9947C46.2011 12.7411 46.0508 13.3995 45.745 13.9748V13.9696Z" fill="#12131A"/>
<path d="M65.1105 12.3832C65.1364 12.1188 65.1468 11.8544 65.1468 11.5849C65.1468 10.6207 64.9965 9.72917 64.6907 8.90498C64.3848 8.08598 63.939 7.36027 63.3585 6.73306C62.7727 6.10585 62.0574 5.61859 61.2125 5.27129C60.3675 4.92399 59.393 4.75293 58.2941 4.75293C56.9723 4.75293 55.7904 5.06394 54.7382 5.69116C53.6859 6.31837 52.8565 7.17366 52.2345 8.25703C51.6177 9.3404 51.3066 10.5793 51.3066 11.9633C51.3066 13.3473 51.6021 14.5188 52.193 15.6229C52.784 16.7218 53.6237 17.5979 54.7071 18.251C55.7904 18.9041 57.0708 19.2307 58.5429 19.2307C59.4915 19.2307 60.3624 19.0907 61.1606 18.8108C61.9589 18.5309 62.6483 18.1369 63.2289 17.629C63.8146 17.121 64.2397 16.53 64.5092 15.851L61.4613 14.4048C61.1917 14.8817 60.8133 15.2497 60.3313 15.5244C59.8492 15.794 59.2686 15.9287 58.5896 15.9287C57.8431 15.9287 57.2107 15.7629 56.6872 15.4311C56.1637 15.0994 55.7749 14.638 55.5209 14.0471C55.3913 13.7413 55.3032 13.4095 55.2565 13.057H64.9654C65.0328 12.8704 65.0794 12.6475 65.1053 12.3832H65.1105ZM56.5887 8.28295C57.0656 7.96157 57.6306 7.80088 58.2889 7.80088C58.9472 7.80088 59.5382 7.96675 60.0047 8.2985C60.4712 8.63025 60.7978 9.07604 60.9844 9.64623C61.0466 9.84321 61.0829 10.0506 61.1036 10.2683H55.3602C55.4017 10.0713 55.4587 9.88468 55.5209 9.70844C55.7593 9.08122 56.1118 8.60952 56.5887 8.28813V8.28295Z" fill="#12131A"/>
<path d="M79.2199 5.05371H74.7983L72.108 9.01915L69.4177 5.05371H64.9961L69.8738 11.9634L65.022 18.9198H69.4384L72.108 14.9129L74.7723 18.9198H79.168L74.3421 11.9634L79.2199 5.05371Z" fill="#12131A"/>
<path fill-rule="evenodd" clip-rule="evenodd" d="M88.899 0L97.4312 11.2432H97.4363V0H101.371V7.67689C101.353 7.70016 101.336 7.72343 101.318 7.74675C101.195 7.91037 101.07 8.07597 100.961 8.25745C100.287 9.34082 99.9556 10.6004 99.9556 11.9896C99.9556 13.3788 100.293 14.6177 100.961 15.7114C101.086 15.9188 101.226 16.1054 101.371 16.2972V18.9253H98.3227L89.8113 7.42808V18.9201H85.877V0H88.899ZM126.843 13.1092L129.538 5.05391H133.499L128.699 18.92H125.397L122.193 10.0301L118.969 18.92H115.667L113.858 13.669C113.752 13.4618 113.636 13.3374 113.484 13.1747C113.45 13.138 113.414 13.0993 113.376 13.0574C113.34 13.0107 113.298 12.9692 113.257 12.9278C112.215 11.8859 110.561 11.8548 109.556 12.8604C109.462 12.9537 109.379 13.0522 109.307 13.1507C109.022 13.5343 108.69 13.7675 108.519 13.8712C108.488 13.8919 108.457 13.9127 108.42 13.9334H108.41C107.43 14.4414 106.145 14.1615 105.502 13.0885C105.108 12.425 105.103 11.5593 105.502 10.8906C106.228 9.68285 107.752 9.4755 108.757 10.2582C108.773 10.2686 108.794 10.2841 108.814 10.3049C108.827 10.3163 108.841 10.3276 108.855 10.3392C108.885 10.3644 108.915 10.3905 108.944 10.4189C109.037 10.5019 109.141 10.6107 109.25 10.7403C109.307 10.8129 109.374 10.8906 109.447 10.958V10.9736C110.437 11.9636 111.987 12.0258 112.997 11.155L110.898 5.05391H114.832L117.533 13.1144L120.55 5.05391H123.852L126.843 13.1092Z" fill="url(#paint0_linear_9900_19780)"/>
<defs>
<linearGradient id="paint0_linear_9900_19780" x1="85.8005" y1="9.4" x2="133.4" y2="9.4" gradientUnits="userSpaceOnUse">
<stop stop-color="#0000FF"/>
<stop offset="1" stop-color="#00E4D0"/>
</linearGradient>
</defs>
</svg>
